<svg width="19" height="14" viewBox="0 0 19 14" fill="none" xmlns="http://www.w3.org/2000/svg">
<g id="logo-mp" clip-path="url(#clip0_123_180)">
<path id="Vector" d="M18.875 6.6284C18.875 3.2604 14.6644 0.519653 9.5 0.519653C4.31238 0.519653 0.125 3.2604 0.125 6.6284V6.97678C0.125 10.5538 3.8005 13.4572 9.5 13.4572C15.246 13.4572 18.875 10.5538 18.875 6.97678V6.6284Z" fill="#0A0080"/>
<path id="Vector_2" d="M18.5028 6.62836C18.5028 9.81048 14.4783 12.3887 9.50006 12.3887C4.52181 12.3887 0.497314 9.81048 0.497314 6.62836C0.497314 3.44623 4.52181 0.867981 9.50006 0.867981C14.4783 0.891231 18.5028 3.44623 18.5028 6.62836Z" fill="#2ABCFF"/>
<path id="Vector_3" d="M6.49909 4.8166C6.49909 4.8166 6.40596 4.90947 6.45246 5.00247C6.59209 5.18822 7.03409 5.28122 7.47609 5.18822C7.73196 5.1186 8.08096 4.8631 8.40659 4.6076C8.75559 4.32885 9.10446 4.0501 9.47659 3.93397C9.84896 3.81772 10.0816 3.86422 10.2443 3.91072C10.4306 3.95722 10.6166 4.07322 10.9423 4.32885C11.5703 4.79335 14.0362 6.95347 14.455 7.3251C14.804 7.1626 16.3393 6.51222 18.4097 6.0476C18.2701 4.93272 17.5955 3.91072 16.572 3.0746C15.1528 3.67847 13.4082 3.98047 11.6867 3.14422C11.6867 3.14422 10.7562 2.70297 9.84896 2.7261C8.49971 2.74935 7.91809 3.35322 7.28996 3.95722L6.49909 4.8166Z" fill="white"/>
<path id="Vector_4" d="M14.3851 7.53423C14.3619 7.51098 11.4773 4.97923 10.8259 4.49148C10.4536 4.21273 10.2443 4.14298 10.0116 4.09648C9.89539 4.07336 9.73252 4.09648 9.61627 4.14298C9.31377 4.23598 8.91827 4.49148 8.56939 4.77011C8.19714 5.07211 7.84814 5.32761 7.54577 5.39723C7.15039 5.51348 6.63852 5.39723 6.40589 5.25798C6.31289 5.18823 6.24302 5.11861 6.21977 5.04886C6.12677 4.86311 6.28964 4.70048 6.31289 4.67723L7.10377 3.81786L7.38289 3.53911C7.12702 3.56236 6.89439 3.63198 6.66177 3.70161C6.38264 3.77136 6.10352 3.86436 5.82427 3.86436C5.70802 3.86436 5.07989 3.77136 4.96364 3.72498C4.24239 3.53911 3.61439 3.32998 2.66052 2.88873C1.52064 3.72498 0.77627 4.77011 0.566895 5.93148C0.72977 5.97798 0.985644 6.04773 1.10189 6.07086C3.66089 6.62836 4.45189 7.23223 4.61464 7.34836C4.77752 7.18586 4.98689 7.06961 5.24277 7.06961C5.52189 7.06961 5.77777 7.20898 5.94064 7.44136C6.08027 7.32511 6.28964 7.23223 6.54552 7.23223C6.66177 7.23223 6.77802 7.25548 6.91764 7.30198C7.03063 7.33944 7.13454 7.40012 7.22269 7.48011C7.31084 7.56011 7.3813 7.65765 7.42952 7.76648C7.52252 7.71998 7.63889 7.69686 7.77839 7.69686C7.91802 7.69686 8.05752 7.71998 8.19714 7.78973C8.66239 7.99873 8.73214 8.46336 8.70889 8.81173H8.80202C9.36027 8.81173 9.82564 9.27623 9.82564 9.83373C9.82564 9.99623 9.77902 10.1589 9.70927 10.3215C9.87214 10.4144 10.2443 10.6002 10.5933 10.5537C10.8724 10.5305 10.9655 10.4376 11.012 10.368C11.0353 10.3215 11.0585 10.2982 11.0353 10.2517L10.314 9.43886C10.314 9.43886 10.1978 9.32261 10.2443 9.27636C10.2909 9.22986 10.3605 9.29948 10.4071 9.34598C10.7794 9.64786 11.2214 10.1125 11.2214 10.1125C11.2214 10.1125 11.2679 10.1821 11.4308 10.2054C11.5703 10.2286 11.8261 10.2054 12.0123 10.066C12.0589 10.0195 12.1054 9.97311 12.1285 9.92661C12.3148 9.69436 12.1054 9.46211 12.1054 9.46211L11.2679 8.50973C11.2679 8.50973 11.1516 8.39361 11.1981 8.34723C11.2446 8.30073 11.3144 8.37036 11.3609 8.41686C11.7012 8.727 12.0348 9.04454 12.3613 9.36923C12.431 9.41561 12.7568 9.62473 13.1754 9.34598C13.4314 9.18336 13.4779 8.97436 13.4779 8.81173C13.4546 8.60273 13.2918 8.46336 13.2918 8.46336L12.1286 7.30198C12.1286 7.30198 12.0124 7.20898 12.0589 7.13936C12.1054 7.09286 12.1751 7.16261 12.2216 7.20898C12.5939 7.51098 13.5941 8.41686 13.5941 8.41686C13.6174 8.41686 13.9431 8.67236 14.3851 8.39361C14.548 8.30073 14.641 8.16136 14.641 7.97548C14.5945 7.71998 14.3851 7.53423 14.3851 7.53423Z" fill="white"/>
<path id="Vector_5" d="M8.80218 8.99751C8.61606 8.99751 8.42993 9.09051 8.40668 9.09051C8.38343 9.09051 8.40668 9.02076 8.42993 8.97426C8.45318 8.92789 8.68581 8.23101 8.10431 7.97551C7.66231 7.78976 7.40643 7.99876 7.31331 8.09176C7.29006 8.11489 7.26681 8.11489 7.26681 8.09176C7.26681 7.97551 7.19706 7.62714 6.82481 7.51101C6.28981 7.34851 5.94081 7.72001 5.84781 7.85939C5.80118 7.55751 5.54531 7.30189 5.21968 7.30189C5.13715 7.30147 5.05536 7.31741 4.97902 7.34878C4.90269 7.38014 4.83332 7.42631 4.77492 7.48463C4.71652 7.54295 4.67025 7.61225 4.63878 7.68854C4.60731 7.76484 4.59126 7.84661 4.59156 7.92914C4.59128 8.01166 4.60734 8.09341 4.63882 8.16969C4.6703 8.24597 4.71657 8.31526 4.77496 8.37356C4.83336 8.43187 4.90272 8.47803 4.97905 8.50939C5.05538 8.54074 5.13716 8.55668 5.21968 8.55626C5.38256 8.55626 5.54531 8.48651 5.66168 8.37039V8.39364C5.63843 8.55614 5.59181 9.11364 6.17343 9.34601C6.40606 9.43889 6.61543 9.36926 6.77831 9.25301C6.82481 9.20664 6.82481 9.22989 6.82481 9.27626C6.80156 9.41564 6.82481 9.74089 7.26681 9.90339C7.59243 10.0428 7.80181 9.90339 7.91806 9.78726C7.96468 9.74089 7.98806 9.74089 7.98806 9.83376C8.01118 10.2519 8.36018 10.577 8.77893 10.577C9.22093 10.577 9.56981 10.2286 9.56981 9.78726C9.59306 9.36926 9.24418 9.02076 8.80218 8.99751Z" fill="white"/>
<path id="Vector_6" d="M14.5016 7.23226C13.6176 6.46576 11.5472 4.67726 11.0122 4.25913C10.6865 4.02688 10.4772 3.88751 10.291 3.84113C10.198 3.81788 10.0817 3.79463 9.94212 3.79463C9.8025 3.79463 9.63962 3.81788 9.50012 3.86438C9.15112 3.98051 8.77887 4.25913 8.43012 4.53788L8.40675 4.56113C8.08112 4.81663 7.7555 5.07213 7.4995 5.14188C7.38325 5.165 7.26687 5.18826 7.17387 5.18826C6.89462 5.18826 6.63887 5.09538 6.54575 4.97926C6.5225 4.95601 6.54575 4.93276 6.569 4.88626L7.33662 4.00376C7.9415 3.39976 8.52312 2.81913 9.84912 2.79588H9.91887C10.7564 2.79588 11.5705 3.16751 11.6636 3.21401C12.4545 3.58563 13.2455 3.77151 14.0596 3.77151C14.8971 3.77151 15.7579 3.56238 16.6884 3.14426C16.5954 3.05138 16.479 2.98176 16.3627 2.88876C15.5717 3.23713 14.8041 3.39976 14.0596 3.39976C13.3152 3.39976 12.5476 3.21401 11.8264 2.86551C11.7799 2.84226 10.8726 2.42426 9.91887 2.42426H9.84912C8.7325 2.44751 8.10437 2.84226 7.68562 3.19076C7.26687 3.19076 6.91787 3.30688 6.59225 3.39976C6.31312 3.46951 6.05725 3.53913 5.8245 3.53913H5.54537C5.26625 3.53913 3.89375 3.19076 2.80037 2.77263C2.68412 2.84226 2.591 2.93513 2.47475 3.02813C3.61462 3.49263 5.01037 3.86438 5.45225 3.88751C5.56862 3.88751 5.70825 3.91076 5.82462 3.91076C6.10375 3.91076 6.40612 3.84113 6.68525 3.74826C6.84812 3.70176 7.03425 3.65526 7.22025 3.60876L7.0575 3.77138L6.2665 4.63088C6.19675 4.70051 6.05725 4.86313 6.15025 5.07213C6.19675 5.16501 6.2665 5.23463 6.35962 5.30438C6.54575 5.42063 6.89462 5.51351 7.19712 5.51351C7.31337 5.51351 7.42962 5.51351 7.52275 5.46701C7.8485 5.39738 8.19737 5.11863 8.56962 4.81663C8.87212 4.58438 9.29087 4.28238 9.59312 4.18951C9.68625 4.16626 9.8025 4.14301 9.87237 4.14301H9.94212C10.1515 4.16626 10.3609 4.23601 10.7331 4.51463C11.3844 5.00251 14.269 7.53426 14.2922 7.55751C14.2922 7.55751 14.4784 7.72001 14.4551 7.97551C14.4551 8.11488 14.3621 8.25426 14.2225 8.34726C14.1062 8.41688 13.9666 8.46338 13.8502 8.46338C13.6642 8.46338 13.5246 8.37038 13.5246 8.37038C13.5246 8.37038 12.5244 7.46451 12.1521 7.16263C12.1056 7.11613 12.0359 7.06963 11.9892 7.06963C11.966 7.06963 11.9427 7.09288 11.9195 7.11613C11.873 7.18576 11.9195 7.27863 12.0125 7.34838L13.1756 8.50976C13.1756 8.50976 13.3152 8.64913 13.3385 8.81176C13.3385 8.99751 13.2455 9.16013 13.0594 9.29951C12.9197 9.39238 12.7802 9.43888 12.6406 9.43888C12.4545 9.43888 12.3381 9.36926 12.315 9.346L12.1521 9.18338C11.8496 8.88138 11.5472 8.5795 11.3146 8.39363C11.2681 8.34726 11.1984 8.30076 11.1517 8.30076C11.1285 8.30076 11.1052 8.30076 11.082 8.32401C11.0587 8.34726 11.0355 8.41688 11.1052 8.48651C11.1173 8.5119 11.1329 8.5354 11.1517 8.55625L11.9892 9.50851C11.9892 9.50851 12.1521 9.71763 12.0125 9.9035L11.9892 9.94976L11.9195 10.0195C11.7799 10.1358 11.5937 10.1589 11.5007 10.1589H11.3845C11.2914 10.1356 11.2449 10.1125 11.2216 10.0893C11.175 10.0428 10.7564 9.60151 10.4074 9.32276C10.3609 9.27626 10.3144 9.22988 10.2445 9.22988C10.2212 9.22988 10.198 9.22988 10.1747 9.25301C10.105 9.32276 10.2212 9.43888 10.2445 9.48538L10.9657 10.275C10.9657 10.275 10.9657 10.2983 10.9425 10.3215C10.9191 10.368 10.8261 10.4378 10.5702 10.484H10.4771C10.198 10.484 9.91887 10.3448 9.77925 10.275C9.84912 10.1356 9.87237 9.97313 9.87237 9.81051C9.87237 9.22988 9.38387 8.742 8.80225 8.742H8.75575C8.779 8.46325 8.7325 7.95238 8.22075 7.74326C8.08112 7.67363 7.91825 7.65038 7.77862 7.65038C7.66237 7.65038 7.54612 7.67363 7.453 7.72001C7.33675 7.511 7.17387 7.34838 6.918 7.27876C6.77837 7.23225 6.662 7.20901 6.5225 7.20901C6.31312 7.20901 6.10375 7.27876 5.91762 7.39488C5.75475 7.18588 5.47562 7.04651 5.21975 7.04651C4.98712 7.04651 4.7545 7.13938 4.56837 7.30201C4.33575 7.13938 3.45175 6.55863 1.07887 6.02451C0.962621 6.00126 0.706746 5.93151 0.543871 5.88513C0.520621 6.02451 0.497371 6.14063 0.474121 6.28001C0.474121 6.28001 0.916121 6.39613 1.00912 6.39613C3.4285 6.93038 4.24262 7.48776 4.38225 7.60388C4.33684 7.71445 4.31316 7.83273 4.3125 7.95226C4.3125 8.46338 4.73125 8.85813 5.21975 8.85813C5.26625 8.85813 5.336 8.85813 5.38262 8.83501C5.45237 9.20663 5.70825 9.48538 6.05725 9.62463C6.1735 9.67113 6.26662 9.69438 6.38287 9.69438C6.45262 9.69438 6.5225 9.69438 6.59225 9.67113C6.662 9.83363 6.82487 10.066 7.1505 10.2054C7.26687 10.2519 7.38312 10.275 7.4995 10.275C7.59262 10.275 7.68562 10.2519 7.77862 10.2286C7.9415 10.6235 8.337 10.9023 8.779 10.9023C9.05812 10.9023 9.33725 10.786 9.54662 10.577C9.7095 10.6699 10.0816 10.8558 10.4539 10.8558H10.5935C10.9657 10.8093 11.1285 10.6699 11.1984 10.5538C11.2216 10.5305 11.2216 10.5074 11.2449 10.4841C11.3379 10.5074 11.431 10.5305 11.524 10.5305C11.7334 10.5305 11.9195 10.4609 12.1056 10.3215C12.2917 10.1821 12.4312 9.99638 12.4545 9.81051C12.5244 9.83376 12.5941 9.83376 12.6406 9.83376C12.85 9.83376 13.0594 9.76401 13.2455 9.64788C13.6176 9.39238 13.6875 9.09038 13.6875 8.88138C13.7572 8.90463 13.827 8.90463 13.8969 8.90463C14.083 8.90463 14.269 8.835 14.4551 8.74213C14.5662 8.67654 14.66 8.58542 14.7287 8.47634C14.7975 8.36725 14.8393 8.24334 14.8506 8.11488C14.8739 7.92913 14.8274 7.76651 14.7342 7.60388C15.3624 7.32513 16.7815 6.81413 18.4796 6.44263C18.4796 6.30313 18.4564 6.18701 18.4331 6.04763C16.4092 6.41938 14.8971 7.06963 14.5016 7.23226ZM8.80225 10.5305C8.40675 10.5305 8.081 10.2286 8.05775 9.83376C8.05775 9.8105 8.05775 9.7175 7.988 9.7175C7.96475 9.7175 7.9415 9.74088 7.895 9.76401C7.80187 9.83376 7.68562 9.92663 7.546 9.92663C7.47625 9.92663 7.38325 9.90338 7.3135 9.88026C6.89475 9.71763 6.89475 9.41563 6.91787 9.29951C6.91787 9.27626 6.91787 9.22988 6.89462 9.20663L6.87137 9.18338H6.84812C6.82487 9.18338 6.80162 9.18338 6.77837 9.20663C6.63875 9.29951 6.5225 9.346 6.40612 9.346C6.33637 9.346 6.26662 9.32276 6.19675 9.29951C5.6385 9.09051 5.685 8.55626 5.70825 8.41688C5.70825 8.39363 5.70825 8.37038 5.685 8.34726L5.6385 8.32401L5.59187 8.37038C5.47562 8.46338 5.336 8.53301 5.1965 8.53301C4.87075 8.53301 4.61487 8.27751 4.61487 7.95238C4.61487 7.62713 4.87075 7.37163 5.1965 7.37163C5.47562 7.37163 5.7315 7.58063 5.75475 7.85938L5.778 8.02201L5.87112 7.88263C5.87112 7.85938 6.10362 7.51101 6.54575 7.51101C6.6155 7.51101 6.7085 7.53426 6.80162 7.55751C7.1505 7.65038 7.19712 7.97551 7.19712 8.09163C7.19712 8.16138 7.26687 8.16138 7.26687 8.16138C7.29012 8.16138 7.31337 8.13813 7.33662 8.13813C7.4065 8.06851 7.546 7.95238 7.75537 7.95238C7.8485 7.95238 7.96475 7.9755 8.08112 8.02201C8.61612 8.25426 8.3835 8.92788 8.3835 8.95113C8.337 9.06726 8.337 9.11363 8.3835 9.13688H8.43C8.45325 9.13688 8.4765 9.13688 8.52312 9.11363C8.59287 9.0905 8.70925 9.044 8.80225 9.044C9.19775 9.044 9.54662 9.36925 9.54662 9.78725C9.54662 10.2054 9.221 10.5305 8.80225 10.5305Z" fill="#0A0080"/>
</g>
<defs>
<clipPath id="clip0_123_180">
<rect width="18.75" height="13" fill="white" transform="translate(0.125 0.5)"/>
</clipPath>
</defs>
</svg>
